Coordinates
version=1
nRows=12
nColumns=63
inDegrees=yes

Units are S.I. units (second, meters, Newtons, ...)
If the header above contains a line with 'inDegrees', this indicates whether rotational values are in degrees (yes) or radians (no).

endheader
time	pelvis_tilt	pelvis_list	pelvis_rotation	pelvis_tx	pelvis_ty	pelvis_tz	hip_flexion_r	hip_adduction_r	hip_rotation_r	knee_angle_r	knee_angle_r_beta	ankle_angle_r	subtalar_angle_r	mtp_angle_r	hip_flexion_l	hip_adduction_l	hip_rotation_l	knee_angle_l	knee_angle_l_beta	ankle_angle_l	subtalar_angle_l	mtp_angle_l	L5_S1_Flex_Ext	L5_S1_Lat_Bending	L5_S1_axial_rotation	L4_L5_Flex_Ext	L4_L5_Lat_Bending	L4_L5_axial_rotation	L3_L4_Flex_Ext	L3_L4_Lat_Bending	L3_L4_axial_rotation	L2_L3_Flex_Ext	L2_L3_Lat_Bending	L2_L3_axial_rotation	L1_L2_Flex_Ext	L1_L2_Lat_Bending	L1_L2_axial_rotation	L1_T12_Flex_Ext	L1_T12_Lat_Bending	L1_T12_axial_rotation	Abs_r3	Abs_r2	Abs_r1	Abs_t1	Abs_t2	neck_flexion	neck_bending	neck_rotation	arm_flex_r	arm_add_r	arm_rot_r	elbow_flex_r	pro_sup_r	wrist_flex_r	wrist_dev_r	arm_flex_l	arm_add_l	arm_rot_l	elbow_flex_l	pro_sup_l	wrist_flex_l	wrist_dev_l
0.000000	-2.021029	-6.146404	104.247715	0.239769	0.873473	0.625037	-4.535724	-2.116546	0.123366	0.640878	0.011185	15.287980	-4.644106	0.000000	-1.039334	3.160769	12.481241	4.136057	0.072188	11.231916	-6.774960	0.000000	-0.113657	-0.474331	-0.860395	-0.211072	-0.630860	-0.914170	-0.186726	-1.153288	-0.914170	-0.129898	-1.153288	-0.752846	-0.105541	-0.967256	-0.699071	-0.064943	-0.734739	-0.645297	-0.811837	-5.365727	-4.785261	0.000000	0.000000	24.022451	1.351333	3.228466	11.126628	-12.721718	95.039362	22.101276	26.800775	-13.988600	-7.904529	-0.779133	-17.121479	39.562834	30.308604	84.056163	-2.043415	10.678596
0.022222	-2.052348	-5.818846	103.563857	0.240956	0.874837	0.621073	-5.142958	-2.043156	0.292470	0.636635	0.011111	15.495049	-4.055243	0.000000	-1.675106	3.115339	12.682670	4.165654	0.072704	10.800643	-8.119736	0.000000	-0.098518	-0.478226	-0.654624	-0.182958	-0.636040	-0.695538	-0.161856	-1.162758	-0.695538	-0.112596	-1.162758	-0.572796	-0.091484	-0.975198	-0.531882	-0.056293	-0.740771	-0.490968	-0.703706	-5.409783	-3.640824	0.000000	0.000000	23.417046	1.442954	3.267146	10.401223	-11.380737	109.663459	17.685469	20.796175	-8.161531	-9.625072	-1.315926	-18.058889	41.065600	31.006830	84.281342	-3.292448	9.116942
0.044444	-2.122554	-5.599519	103.057246	0.242106	0.876269	0.618284	-5.558087	-2.029848	0.296067	0.639442	0.011160	15.680916	-3.409591	0.000000	-2.107545	3.111275	12.488766	4.191284	0.073152	10.503763	-8.682123	0.000000	-0.084477	-0.493359	-0.524883	-0.156882	-0.656167	-0.557689	-0.138787	-1.199552	-0.557689	-0.096549	-1.199552	-0.459273	-0.078445	-1.006057	-0.426468	-0.048270	-0.764213	-0.393663	-0.603409	-5.580973	-2.919244	0.000000	0.000000	22.767779	1.653049	3.284087	10.028270	-10.070604	122.754350	13.872955	15.787121	-5.050371	-11.297256	-1.739332	-18.839789	41.544899	32.116576	84.692553	-4.914477	7.518931
0.066667	-2.227513	-5.475321	102.712244	0.243219	0.877760	0.616567	-5.802310	-2.069831	0.155294	0.648988	0.011327	15.846781	-2.722257	0.000000	-2.358701	3.144051	11.949761	4.213807	0.073545	10.323460	-8.551824	0.000000	-0.071723	-0.518246	-0.464448	-0.133196	-0.689267	-0.493476	-0.117833	-1.260063	-0.493476	-0.081972	-1.260063	-0.406392	-0.066602	-1.056807	-0.377364	-0.040982	-0.802763	-0.348336	-0.512308	-5.862503	-2.583118	0.000000	0.000000	22.083623	1.963025	3.294118	9.979058	-8.781322	134.416509	10.621337	11.691280	-4.347909	-12.912469	-2.063326	-19.478772	41.126177	33.601378	85.247002	-6.822208	5.913891
0.088889	-2.363086	-5.433148	102.513218	0.244294	0.879296	0.615813	-5.896824	-2.156315	-0.108713	0.664962	0.011606	15.993842	-2.008347	0.000000	-2.450622	3.209143	11.115888	4.234084	0.073899	10.241919	-7.818543	0.000000	-0.060447	-0.551403	-0.466592	-0.112255	-0.733366	-0.495754	-0.099308	-1.340681	-0.495754	-0.069084	-1.340681	-0.408268	-0.056131	-1.124421	-0.379106	-0.034539	-0.854123	-0.349944	-0.431764	-6.237580	-2.595042	0.000000	0.000000	21.373552	2.354290	3.312068	10.224876	-7.502896	144.754412	7.888216	8.426321	-5.746931	-14.462103	-2.301878	-19.990427	39.934877	35.424774	85.901895	-8.928346	4.331149
0.111111	-2.525140	-5.459898	102.444532	0.245331	0.880868	0.615918	-5.862827	-2.282510	-0.474816	0.687054	0.011991	16.123298	-1.282969	0.000000	-2.405358	3.302026	10.037382	4.252975	0.074228	10.241323	-6.571984	0.000000	-0.050839	-0.591345	-0.524590	-0.094413	-0.786489	-0.557377	-0.083523	-1.437796	-0.557377	-0.058104	-1.437796	-0.459016	-0.047209	-1.205870	-0.426230	-0.029049	-0.915993	-0.393443	-0.363136	-6.689410	-2.917614	0.000000	0.000000	20.646540	2.808250	3.352768	10.737016	-6.225330	153.872534	5.631197	5.909911	-8.940224	-15.937545	-2.468961	-20.389348	38.096446	37.550302	86.614440	-11.145597	2.800032
0.133333	-2.709537	-5.542468	102.490550	0.246331	0.882464	0.616777	-5.721518	-2.441628	-0.921878	0.714951	0.012478	16.236348	-0.561229	0.000000	-2.244958	3.418176	8.764475	4.271340	0.074549	10.303857	-4.901849	0.000000	-0.043090	-0.636587	-0.631719	-0.080022	-0.846661	-0.671201	-0.070792	-1.547798	-0.671201	-0.049247	-1.547798	-0.552754	-0.040013	-1.298128	-0.513271	-0.024622	-0.986073	-0.473789	-0.307786	-7.201199	-3.513429	0.000000	0.000000	19.911561	3.306315	3.431048	11.486766	-4.938627	161.875351	3.807881	4.059719	-13.620578	-17.330185	-2.578547	-20.690123	35.736328	39.941499	87.341843	-13.386666	1.349868
0.155556	-2.912142	-5.667756	102.635637	0.247295	0.884074	0.618282	-5.494095	-2.626876	-1.428763	0.748342	0.013061	16.334191	0.141765	0.000000	-1.991472	3.553066	7.347401	4.290039	0.074875	10.411706	-2.897841	0.000000	-0.037390	-0.685645	-0.781251	-0.069437	-0.911908	-0.830079	-0.061428	-1.667077	-0.830079	-0.042733	-1.667077	-0.683595	-0.034721	-1.398167	-0.634767	-0.021365	-1.062064	-0.585938	-0.267075	-7.756153	-4.345084	0.000000	0.000000	19.177587	3.829891	3.561736	12.445416	-3.632792	168.867339	2.375872	2.793413	-19.480779	-18.631413	-2.644609	-20.907346	32.979967	42.561902	88.041310	-15.564259	0.009983
0.177778	-3.128819	-5.822658	102.864159	0.248221	0.885684	0.620329	-5.201755	-2.831467	-1.974332	0.786917	0.013734	16.418025	0.810908	0.000000	-1.666949	3.702173	5.836392	4.309932	0.075223	10.547054	-0.649665	0.000000	-0.033931	-0.737034	-0.966463	-0.063012	-0.980256	-1.026867	-0.055745	-1.792025	-1.026867	-0.038779	-1.792025	-0.845655	-0.031508	-1.502960	-0.785251	-0.019388	-1.141666	-0.724847	-0.242363	-8.337478	-5.375177	0.000000	0.000000	18.453594	4.360387	3.759664	13.584257	-2.297828	174.952972	1.292772	2.028660	-26.213615	-19.832618	-2.681118	-21.055607	29.952809	45.375049	88.670049	-17.591081	-1.190295
0.200000	-3.355432	-5.994073	103.160479	0.249110	0.887286	0.622812	-4.865698	-3.048609	-2.537449	0.830365	0.014493	16.489049	1.431092	0.000000	-1.293437	3.860972	4.281683	4.331880	0.075606	10.692085	1.752976	0.000000	-0.032901	-0.789270	-1.180629	-0.061101	-1.049729	-1.254418	-0.054053	-1.919031	-1.254418	-0.037603	-1.919031	-1.033050	-0.030552	-1.609480	-0.959261	-0.018800	-1.222579	-0.885472	-0.235010	-8.928382	-6.566303	0.000000	0.000000	17.748554	4.879209	4.039661	14.874578	-0.923740	180.236725	0.516185	1.683130	-33.511874	-20.925190	-2.702047	-21.149498	26.780299	48.344477	89.185265	-19.379838	-2.221638
0.222222	-3.587845	-6.168896	103.508962	0.249963	0.888867	0.625624	-4.507121	-3.271514	-3.096976	0.878373	0.015331	16.548462	1.987210	0.000000	-0.892987	4.024938	2.733505	4.356743	0.076040	10.828983	4.220379	0.000000	-0.034493	-0.840868	-1.417023	-0.064057	-1.118355	-1.505587	-0.056668	-2.044487	-1.505587	-0.039422	-2.044487	-1.239896	-0.032030	-1.714698	-1.151332	-0.019709	-1.302505	-1.062768	-0.246379	-9.512069	-7.881060	0.000000	0.000000	17.071442	5.367766	4.416557	16.287670	0.499469	184.823075	0.003712	1.674489	-41.068342	-21.900517	-2.721368	-21.203609	23.587882	51.433724	89.544166	-20.843236	-3.054720
0.244444	-3.816729	-6.332838	103.881518	0.250772	0.890471	0.628594	-4.165239	-3.488535	-3.535381	0.946824	0.016525	16.536652	2.283812	0.000000	-0.494691	4.188585	1.258378	4.380594	0.076456	10.948069	6.631160	0.000000	-0.037436	-0.888046	-1.661781	-0.069522	-1.181102	-1.765642	-0.061503	-2.159196	-1.765642	-0.042785	-2.159196	-1.454058	-0.034763	-1.810904	-1.350197	-0.021391	-1.375584	-1.246336	-0.267400	-10.045758	-9.242326	0.000000	0.000000	16.424296	5.703032	4.905203	17.684754	2.074162	188.842616	-0.476656	1.848468	-47.137114	-22.789161	-2.864016	-21.281314	20.584512	54.768203	89.657871	-21.695290	-3.932986
